<?xml version="1.0" encoding="utf-8"?>
<svg viewBox="0 0 255.833 250" xmlns="http://www.w3.org/2000/svg">
  <rect x="2.917" width="250" height="250" style="stroke: rgb(0, 0, 0); stroke-width: 0px; fill: rgb(255, 255, 255);"/>
  <g transform="matrix(0.300358, 0, 0, -0.300358, -11.520534, 249.397451)" fill="#000000" stroke="none">
    <path d="M 512 760 C 521 754 537.655 727.478 545 699 C 556.091 656 560 641 550 602 C 530 528 503 477 463 438 C 411 389 370 370 315 370 C 276 370 263 375 240 400 C 221 420 210 444 208 468 C 206 499 199.365 516.899 179.365 518.899 C 153.365 522.899 134.589 501.325 127.185 472.444 C 126.193 458.786 127.244 462.799 124.195 442.112 C 122.107 427.947 122.842 450.09 122.842 381.09 C 121.842 323.09 151.733 262.48 158 249 C 176.791 208.582 246 160 329 140 C 437 114 555.146 164.849 660 266 C 776.697 378.576 794.758 519.182 749 623 C 714.1 702.183 582 771 517 770 C 498 769 497 768 512 760 Z" style="fill: rgb(27, 61, 104);"/>
    <path d="M276 734 c-43 -22 -76 -50 -122 -107 -6 -7 -17 -24 -24 -38 -13 -23 -12 -24 7 -6 25 22 75 22 96 -1 9 -9 17 -40 19 -67 3 -49 4 -50 36 -53 94 -9 187 151 141 241 -17 32 -51 57 -79 57 -14 0 -47 -12 -74 -26z" style="fill: rgb(27, 61, 104);"/>
    <path d="M 754.817 317.8 C 693.065 211.347 590.265 126.324 415.811 76.939 C 391.55 70.071 342.716 65.11 296.088 64.035 C 225.514 64.035 216.693 61.885 243.157 52.208 C 260.801 46.832 317.512 43.605 370.442 46.832 C 490.165 53.283 585.944 89.842 670.38 161.887 C 734.653 216.725 801.446 322.103 795.144 359.736 C 792.624 376.941 781.283 365.113 754.817 317.8 Z" style="fill: rgb(27, 61, 104);" transform="matrix(0.996998, -0.077425, 0.077424, 0.996998, -14.440554, 40.299559)"/>
  </g>
</svg>