<?xml version="1.0" encoding="utf-8"?>
<svg viewBox="0 0 475.262 475.262" fill="#000000" xmlns="http://www.w3.org/2000/svg" xmlns:bx="https://boxy-svg.com">
  <path d="M 237.729 1.076 L 254.234 211.074 L 221.224 211.074 L 237.729 1.076 Z" style="stroke: rgb(0, 0, 0); stroke-width: 0px;" bx:shape="triangle 221.224 1.076 33.01 209.998 0.5 0 1@70885a4b"/>
  <path d="M 237.729 -474.186 L 254.234 -264.188 L 221.224 -264.188 L 237.729 -474.186 Z" style="stroke: rgb(0, 0, 0); stroke-width: 0px;" transform="matrix(1, 0, 0, -1, 0, 0)" bx:shape="triangle 221.224 -474.186 33.01 209.998 0.5 0 1@102597ea"/>
  <path d="M 353.316 71.644 L 368.448 300.682 L 338.183 300.682 L 353.316 71.644 Z" style="stroke: rgb(0, 0, 0); stroke-width: 0px;" transform="matrix(0.689673, 0.724121, -0.828793, 0.579773, 269.893866, -208.418614)" bx:shape="triangle 338.183 71.644 30.265 229.038 0.5 0 1@e638846c"/>
  <path d="M -323.05 -71.644 L -307.918 157.394 L -338.183 157.394 L -323.05 -71.644 Z" style="stroke: rgb(0, 0, 0); stroke-width: 0px;" transform="matrix(-0.689673, -0.724121, 0.828793, -0.579773, -142.85361, 110.996386)" bx:shape="triangle -338.183 -71.644 30.265 229.038 0.5 0 1@f13a9c45"/>
  <path d="M -323.05 -71.644 L -307.918 157.394 L -338.183 157.394 L -323.05 -71.644 Z" style="stroke: rgb(0, 0, 0); stroke-width: 0px;" transform="matrix(-0.689673, 0.724121, 0.828793, 0.579773, -142.304462, 364.214577)" bx:shape="triangle -338.183 -71.644 30.265 229.038 0.5 0 1@f13a9c45"/>
  <path d="M 353.316 71.644 L 368.448 300.682 L 338.183 300.682 L 353.316 71.644 Z" style="stroke: rgb(0, 0, 0); stroke-width: 0px;" transform="matrix(0.689673, -0.724121, -0.828793, -0.579773, 270.400427, 683.83229)" bx:shape="triangle 338.183 71.644 30.265 229.038 0.5 0 1@e638846c"/>
  <path d="M 237.631 196.018 L 276.249 216.824 L 276.249 258.436 L 237.631 279.242 L 199.013 258.436 L 199.013 216.824 Z" style="stroke: rgb(0, 0, 0); stroke-width: 0px;" bx:shape="n-gon 237.631 237.63 44.592 41.612 6 0 1@1808339f"/>
</svg>