<?xml version="1.0" encoding="utf-8"?>
<svg viewBox="0 0 280 280" xmlns="http://www.w3.org/2000/svg">
  <rect width="280" height="280" style="stroke: rgb(0, 0, 0); stroke-width: 0px; fill: rgb(255, 255, 255);"/>
  <g transform="matrix(-0.120064, 0, 0, -0.120064, 307.59925, 313.019172)" fill="#000000" stroke="none">
    <path d="M1835 2445 c-25 -24 -25 -25 -25 -220 l0 -195 -235 0 -236 0 -24 -25 c-23 -22 -25 -32 -25 -114 0 -81 2 -93 24 -118 l24 -28 236 -3 236 -3 0 -383 c0 -443 -1 -453 -78 -534 -69 -74 -157 -113 -270 -119 -113 -5 -127 -9 -152 -35 -17 -18 -20 -35 -20 -109 0 -143 28 -160 226 -140 140 14 245 46 348 107 163 95 273 244 296 399 7 45 10 323 8 782 l-3 711 -24 26 c-24 25 -28 26 -153 26 -124 0 -130 -1 -153 -25z" style="fill: rgb(60, 186, 203);"/>
    <path d="M555 1700 c-32 -13 -71 -61 -86 -105 -19 -55 -19 -355 0 -410 23 -67 82 -115 141 -115 20 0 20 5 20 320 l0 320 -27 -1 c-16 0 -37 -4 -48 -9z" style="fill: rgb(60, 186, 203);"/>
    <path d="M1163 1609 c-77 -38 -94 -126 -35 -182 93 -89 245 -25 229 95 -6 46 -29 75 -74 94 -44 19 -71 17 -120 -7z" style="fill: rgb(60, 186, 203);"/>
  </g>
  <g transform="matrix(0.120064, 0, 0, -0.120064, -27.599249, 313.019172)" fill="#000000" stroke="none">
    <path d="M1835 2445 c-25 -24 -25 -25 -25 -220 l0 -195 -235 0 -236 0 -24 -25 c-23 -22 -25 -32 -25 -114 0 -81 2 -93 24 -118 l24 -28 236 -3 236 -3 0 -383 c0 -443 -1 -453 -78 -534 -69 -74 -157 -113 -270 -119 -113 -5 -127 -9 -152 -35 -17 -18 -20 -35 -20 -109 0 -143 28 -160 226 -140 140 14 245 46 348 107 163 95 273 244 296 399 7 45 10 323 8 782 l-3 711 -24 26 c-24 25 -28 26 -153 26 -124 0 -130 -1 -153 -25z" style="fill: rgb(85, 96, 177);"/>
    <path d="M555 1700 c-32 -13 -71 -61 -86 -105 -19 -55 -19 -355 0 -410 23 -67 82 -115 141 -115 20 0 20 5 20 320 l0 320 -27 -1 c-16 0 -37 -4 -48 -9z" style="fill: rgb(85, 96, 177);"/>
    <path d="M1163 1609 c-77 -38 -94 -126 -35 -182 93 -89 245 -25 229 95 -6 46 -29 75 -74 94 -44 19 -71 17 -120 -7z" style="fill: rgb(85, 96, 177);"/>
  </g>
</svg>