<?xml version="1.0" encoding="utf-8"?>
<svg viewBox="0 0 630 630" xmlns="http://www.w3.org/2000/svg">
  <rect x="117.712" y="105.009" width="385.521" height="410.468" style="stroke: rgb(0, 0, 0); stroke-width: 0px; fill: rgb(255, 255, 255);"/>
  <g transform="matrix(0.1, 0, 0, -0.1, 0, 630)" fill="#000000" stroke="none">
    <path d="M0 3150 l0 -3150 3150 0 3150 0 0 3150 0 3150 -3150 0 -3150 0 0 -3150z m1761 1841 c8 -17 210 -370 449 -785 390 -677 438 -756 466 -766 82 -28 164 -141 164 -226 0 -145 -132 -267 -271 -251 -124 15 -219 120 -219 244 0 48 -9 68 -132 281 l-133 230 -3 -370 c-1 -203 -1 -533 0 -734 l3 -364 1239 1360 c682 748 1244 1360 1248 1360 4 0 8 -832 8 -1850 0 -1017 -3 -1850 -7 -1850 -5 1 -213 356 -463 790 -398 691 -458 790 -482 795 -38 9 -118 82 -139 130 -22 49 -25 142 -5 190 8 18 33 54 56 79 112 122 315 92 392 -59 12 -22 23 -68 26 -105 4 -61 12 -77 120 -265 63 -110 121 -209 128 -220 12 -16 14 92 14 708 l0 727 -148 -162 c-670 -734 -1008 -1104 -1721 -1888 -611 -670 -610 -670 -616 -670 -3 0 -5 833 -5 1850 0 1018 4 1850 8 1850 5 0 15 -13 23 -29z" style="fill: rgb(35, 47, 185);"/>
  </g>
</svg>