<?xml version="1.0" encoding="utf-8"?>
<svg viewBox="0 0 475.262 475.262" fill="#000000" xmlns="http://www.w3.org/2000/svg">
  <g transform="matrix(1.082429, 0, 0, 1.082429, 19.059891, -5.410053)">
    <rect x="16.793" y="18.053" width="341.259" height="412.96" style="stroke: rgb(0, 0, 0); stroke-width: 0px;" rx="49.011" ry="49.011"/>
    <g transform="matrix(1, 0, 0, 1, -56.159969, 85.411827)">
      <path id="XMLID_28_" d="M 172.543 64.572 C 153.897 64.572 138.782 79.672 138.782 98.326 C 138.782 116.965 153.897 132.071 172.543 132.071 C 191.182 132.071 206.296 116.965 206.296 98.326 C 206.296 79.671 191.182 64.572 172.543 64.572 Z" style="fill: rgb(255, 255, 255);"/>
      <path id="XMLID_13_" d="M 214.853 147.207 C 211.865 140.665 181.112 138.574 173.788 138.574 C 60.754 138.574 251.515 138.574 172.642 138.574 C 165.265 138.574 133.206 140.665 130.225 147.207 L 131.628 213.649 L 213.46 213.671 L 214.853 147.207 Z" style="fill: rgb(255, 255, 255);"/>
    </g>
    <rect x="206.447" y="193.221" width="180.613" height="62.625" style="stroke: rgb(0, 0, 0); stroke-width: 0px; fill: rgb(255, 255, 255);" rx="31.313" ry="31.313"/>
    <ellipse style="stroke: rgb(0, 0, 0); stroke-width: 0px;" cx="241.978" cy="224.533" rx="21.5" ry="21.5"/>
    <rect x="36.133" y="42.277" width="302.579" height="17.857" style="stroke: rgb(0, 0, 0); stroke-width: 0px; fill: rgb(255, 255, 255);" rx="8.929" ry="8.929"/>
  </g>
</svg>