<?xml version="1.0" encoding="utf-8"?>
<svg viewBox="0 0 250 250" fill="#52658C" xmlns="http://www.w3.org/2000/svg">
  <rect width="250" height="250" style="stroke: rgb(0, 0, 0); stroke-width: 0px;"/>
  <path d="M 167.257 66.057 L 217.167 5.5 L 220.557 152.28 C 218.954 170.675 216.717 180.308 208.269 195.23 L 196.827 211.726 L 187.081 175.258 C 188.182 170.921 188.191 165.928 188.191 161.227 C 188.191 142.783 179.377 126.367 165.696 116.038 C 165.329 115.67 164.87 115.301 164.41 115.025 C 159.912 111.798 154.863 109.215 149.445 107.462 C 143.936 105.711 138.06 104.696 132.001 104.696 C 103.997 104.696 80.677 125.354 76.452 152.28 C 75.994 155.233 75.718 158.184 75.718 161.227 C 75.718 182.621 87.562 201.249 105.007 210.841 C 113.087 215.266 122.269 217.757 132.001 217.757 C 144.672 217.757 162.885 209.711 172.248 202.609 L 193.861 214.766 C 191.83 216.927 179.914 225.183 177.758 226.923 C 175.603 228.66 164.273 235.511 162.208 235.925 C 150.364 241.458 137.141 244.5 123.186 244.5 C 112.536 244.5 102.345 242.749 92.796 239.428 C 55.979 226.795 29.444 191.659 29.444 150.345 C 29.444 143.335 30.178 136.42 31.556 129.872 C 40.921 87.727 78.382 56.281 123.095 56.281 C 131.175 56.281 138.979 57.294 146.415 59.232 C 153.21 60.983 159.729 63.474 165.789 66.608 C 166.34 66.887 166.983 66.608 167.257 66.057 Z" style="fill: rgb(255, 255, 255);"/>
</svg>