<?xml version="1.0" encoding="utf-8"?>
<svg viewBox="0 0 367 84" style="enable-background:new 0 0 250.8 312.8;" xmlns="http://www.w3.org/2000/svg">
  <defs>
    <style type="text/css">
	.st0{fill:#3C8BD9;}
	.st1{fill:#FABC04;}
	.st2{fill:#34A852;}
	.st3{fill:#E1C025;}
	.st4{fill:#757575;}
</style>
  </defs>
  <g>
    <path class="st0" d="M 35.864 13.441 C 36.657 11.359 37.748 9.442 39.367 7.889 C 45.845 1.577 56.553 3.163 60.948 11.094 C 64.253 17.109 67.756 22.991 71.159 28.94 C 76.844 38.821 82.594 48.703 88.214 58.617 C 92.938 66.913 87.816 77.389 78.431 78.81 C 72.68 79.669 67.293 77.026 64.319 71.87 C 59.328 63.178 54.305 54.487 49.315 45.828 C 49.215 45.63 49.083 45.465 48.952 45.3 C 48.423 44.869 48.192 44.242 47.861 43.679 C 45.647 39.781 43.366 35.913 41.152 32.047 C 39.731 29.535 38.244 27.057 36.823 24.545 C 35.534 22.298 34.939 19.852 35.005 17.274 C 35.104 15.953 35.269 14.631 35.864 13.441"/>
    <path class="st1" d="M 35.871 13 C 35.56 14.244 35.28 15.483 35.211 16.792 C 35.105 19.688 35.834 22.379 37.294 24.898 C 41.114 31.412 44.932 37.97 48.72 44.517 C 49.065 45.104 49.343 45.687 49.691 46.242 C 47.608 49.828 45.523 53.382 43.406 56.968 C 40.489 61.966 37.573 66.999 34.624 72 C 34.483 72 34.446 71.929 34.412 71.826 C 34.376 71.552 34.483 71.31 34.551 71.032 C 35.975 65.861 34.794 61.275 31.217 57.347 C 29.031 54.964 26.251 53.621 23.055 53.171 C 18.891 52.585 15.208 53.657 11.909 56.241 C 11.318 56.69 10.938 57.347 10.241 57.692 C 10.104 57.692 10.034 57.621 10 57.519 C 11.667 54.656 13.298 51.792 14.967 48.931 C 21.843 37.07 28.718 25.206 35.627 13.38 C 35.697 13.239 35.8 13.139 35.871 13"/>
    <path class="st2" d="M 10.639 55.869 C 11.304 55.273 11.934 54.645 12.634 54.083 C 21.142 47.364 33.917 52.228 35.772 62.869 C 36.227 65.425 35.982 67.875 35.212 70.325 C 35.178 70.536 35.142 70.711 35.072 70.92 C 34.756 71.481 34.476 72.076 34.127 72.635 C 31.011 77.781 26.427 80.337 20.405 79.951 C 13.51 79.461 8.084 74.281 7.14 67.42 C 6.684 64.095 7.349 60.979 9.064 58.109 C 9.414 57.48 9.835 56.919 10.22 56.288 C 10.395 56.15 10.325 55.869 10.639 55.869"/>
    <path class="st1" d="M11.8,158c-0.4,0.4-0.4,1.1-1.1,1.2c-0.1-0.7,0.3-1.1,0.7-1.6L11.8,158"/>
    <path class="st4" d="M 116.7 19 C 105.4 19 96 28.1 96 39.3 C 96 50.5 105.4 59.5 116.7 59.5 C 122.8 59.5 127.3 57.5 130.9 53.8 C 134.6 50.1 135.7 45 135.7 40.9 C 135.7 39.6 135.6 38.4 135.4 37.4 L 116.7 37.4 L 116.7 42.9 L 130 42.9 C 129.6 46 128.6 48.3 127 49.9 C 125.1 51.8 122 54 116.7 54 C 108.5 54 102.1 47.4 102.1 39.3 C 102.1 31.2 108.5 24.6 116.7 24.6 C 121.1 24.6 124.4 26.3 126.7 28.6 L 130.6 24.7 C 127.3 21.5 122.9 19 116.7 19 Z M 150.6 33.5 C 143.5 33.5 137.6 39 137.6 46.7 C 137.6 54.3 143.4 59.9 150.6 59.9 C 157.8 59.9 163.6 54.3 163.6 46.7 C 163.6 39.1 157.7 33.5 150.6 33.5 M 150.6 54.7 C 146.7 54.7 143.3 51.4 143.3 46.7 C 143.3 42 146.7 38.7 150.6 38.7 C 154.5 38.7 157.9 41.9 157.9 46.7 C 157.9 51.4 154.5 54.7 150.6 54.7 M 178.8 33.5 C 171.6 33.5 165.8 39 165.8 46.7 C 165.8 54.3 171.6 59.9 178.8 59.9 C 185.9 59.9 191.8 54.3 191.8 46.7 C 191.8 39.1 186 33.5 178.8 33.5 M 178.8 54.7 C 174.9 54.7 171.5 51.4 171.5 46.7 C 171.5 42 174.9 38.7 178.8 38.7 C 182.7 38.7 186.1 41.9 186.1 46.7 C 186.1 51.4 182.8 54.7 178.8 54.7 M 206.9 33.5 C 200.4 33.5 194.5 39.2 194.5 46.6 C 194.5 53.9 200.4 59.6 206.9 59.6 C 210 59.6 212.4 58.2 213.7 56.6 L 213.9 56.6 L 213.9 58.5 C 213.9 63.5 211.3 66.2 207 66.2 C 203.5 66.2 201.4 63.7 200.5 61.6 L 195.5 63.7 C 196.9 67.2 200.7 71.4 207 71.4 C 213.7 71.4 219.3 67.4 219.3 57.8 L 219.3 34.4 L 213.9 34.4 L 213.9 36.5 L 213.7 36.5 C 212.4 34.9 210 33.5 206.9 33.5 M 207.4 54.5 C 203.5 54.5 200.2 51.2 200.2 46.6 C 200.2 42 203.5 38.6 207.4 38.6 C 211.3 38.6 214.3 42 214.3 46.6 C 214.3 51.2 211.3 54.5 207.4 54.5 M 223.5 20.6 L 229.2 20.6 L 229.2 59.2 L 223.5 59.2 L 223.5 20.6 Z M 244.5 33.5 C 237.7 33.5 232 38.8 232 46.7 C 232 54.1 237.6 59.9 245.1 59.9 C 251.2 59.9 254.7 56.2 256.1 54.1 L 251.6 51.1 C 250.1 53.3 248 54.7 245.1 54.7 C 242.1 54.7 240 53.4 238.7 50.7 L 256.4 43.4 L 255.8 41.9 C 254.7 39 251.3 33.5 244.5 33.5 M 237.7 46.3 C 237.5 41.2 241.7 38.6 244.6 38.6 C 246.9 38.6 248.9 39.7 249.5 41.4 L 237.7 46.3 Z"/>
    <path class="st4" d="M 276 58.1 L 289.2 23 L 294.3 23 L 307.5 58.1 L 302.5 58.1 L 299.1 48.6 L 284.4 48.6 L 281 58.1 L 276 58.1 Z M 285.9 44.4 L 297.6 44.4 L 291.9 28.6 L 291.7 28.6 L 285.9 44.4 Z"/>
    <path class="st4" d="M 312.3 54.6 C 310.1 52.1 309 49.1 309 45.5 C 309 42 310.1 39 312.3 36.4 C 314.6 33.9 317.2 32.7 320.4 32.7 C 322.2 32.7 323.8 33.1 325.2 33.8 C 326.7 34.6 327.8 35.5 328.6 36.8 L 328.8 36.8 L 328.6 33.5 L 328.6 22.4 L 333.1 22.4 L 333.1 57.5 L 328.8 57.5 L 328.8 54.2 L 328.6 54.2 C 327.8 55.4 326.7 56.4 325.2 57.2 C 323.7 58 322.1 58.3 320.4 58.3 C 317.2 58.3 314.5 57.1 312.3 54.6 M 326.5 51.8 C 328 50.2 328.7 48.1 328.7 45.5 C 328.7 43 328 40.9 326.5 39.3 C 325.1 37.7 323.3 36.9 321.1 36.9 C 318.9 36.9 317.1 37.7 315.7 39.3 C 314.2 40.9 313.5 43 313.5 45.5 C 313.5 48 314.2 50.1 315.7 51.7 C 317.2 53.3 319 54.1 321.1 54.1 C 323.3 54.2 325.1 53.4 326.5 51.8"/>
    <path class="st4" d="M 355.2 55.8 C 353.4 57.2 351.1 58 348.3 58 C 345.9 58 343.8 57.4 341.9 56.1 C 340.1 54.8 338.8 53.2 338 51.1 L 342 49.4 C 342.6 50.8 343.4 52 344.6 52.8 C 345.7 53.6 347 54 348.3 54 C 349.7 54 350.9 53.7 351.9 53.1 C 352.9 52.5 353.3 51.7 353.3 50.9 C 353.3 49.4 352.1 48.2 349.8 47.5 L 345.7 46.5 C 341 45.3 338.7 43.1 338.7 39.7 C 338.7 37.5 339.6 35.8 341.4 34.4 C 343.2 33.1 345.5 32.4 348.2 32.4 C 350.3 32.4 352.2 32.9 354 33.9 C 355.7 34.9 356.9 36.3 357.6 38 L 353.6 39.7 C 353.1 38.7 352.4 37.9 351.4 37.3 C 350.4 36.7 349.2 36.4 347.9 36.4 C 346.7 36.4 345.7 36.7 344.7 37.3 C 343.8 37.9 343.3 38.6 343.3 39.5 C 343.3 40.9 344.6 41.9 347.2 42.4 L 350.8 43.3 C 355.6 44.5 357.9 46.9 357.9 50.5 C 358 52.6 357 54.4 355.2 55.8"/>
  </g>
</svg>