<?xml version="1.0" encoding="utf-8"?>
<!-- Svg Vector Icons : http://www.onlinewebfonts.com/icon -->
<!DOCTYPE svg PUBLIC "-//W3C//DTD SVG 1.1//EN" "http://www.w3.org/Graphics/SVG/1.1/DTD/svg11.dtd">
<svg version="1.1" xmlns="http://www.w3.org/2000/svg" xmlns:xlink="http://www.w3.org/1999/xlink" x="0px" y="0px" viewBox="0 0 1000 1000" enable-background="new 0 0 1000 1000" xml:space="preserve">
<metadata> Svg Vector Icons : http://www.onlinewebfonts.com/icon </metadata>
<g><g><g><path d="M897.1,551.9c7.9-12.7,3.7-30.2-9-37.9c0,0-298.8-183.6-332.2-205.4c-18-11.8-37.4-19.4-57.8-22.8c-18.9-3.2-38.2-2.7-57.3,1.6c-20.4,4.6-40.5,13.5-58,25.9c-17.2,12.3-32,27.8-42.6,45c-0.2,0.4-0.5,0.8-0.7,1.2c0,0-92.1,149.5-92.2,149.7c-7.5,12.1-3.2,23.1,10.6,28.1c18.9,6.8,41.4,5.7,62.4-0.2c21.6-6.1,40.6-18.2,53.6-33.9c12.7-15.4,23.3-32.5,33.5-49.1c3.3-5.3,6.7-10.8,10.1-16.2c9.3-14.5,20.2-24.4,33.3-30.3c28.2-12.5,55.3-7.6,85.2,15.4c30.5,23.3,37.9,64,17.7,96.7c-1.2,1.9-2.6,3.9-3.9,5.7c-10.1,13.6-24.1,22.5-45.4,28.7l-10.8,3.2l2.8,11c5.3,21.5,2.6,40.7-8.5,58.5l-0.1,0.2c-10.4,16.9-26.3,27.8-48.3,33.3l-10.8,2.8l2.1,10.9c4.3,22.6,1.6,41.4-8.3,57.5c-6.2,10.1-15.7,19.5-28,28l-15,10.2l253,156.2c12.9,8,30,4,37.9-8.9C670.3,917.3,897.1,552,897.1,551.9C897.1,552,897.1,552,897.1,551.9z"/><path d="M340.4,298.7c4,2.8,14.5,10,27,0.3c18.6-14.5,39.9-24.6,64.8-31.1c4.5-1.1,8.3-4,10.7-7.9c4.9-8,2.6-19.4-5.8-24.6l-5.4-3.4c-67-41.3-270.9-167.2-340.1-209.9c-21.2-13-45.2-11.8-62.9,3.3c-4.4,3.8-8.2,8.1-11.1,12.9c-7.5,12.1-9.5,26.2-5.8,39.8c3.7,13.6,12.8,25.6,25.8,33.5c63.4,39.4,239.9,148.2,301.1,186C339.3,297.9,339.8,298.3,340.4,298.7z"/><path d="M403.8,722.6c0.2-0.3,0.4-0.6,0.5-0.9c15.6-25.3,10.2-54-12.8-68.2L195.4,532.8c-23.1-14.2-52.7-1-65.7,20.2c-0.8,1.3-1.5,2.6-2.1,3.9c-6.3,12.6-7.9,25.8-4.5,38.1c3.4,12.5,11.5,23,23.4,30.5l188.6,116.3l0.4,0.2l0.4,0.2c11.8,6,25.3,7.1,38,3.1C386.2,741.6,396.8,733.6,403.8,722.6z"/><path d="M293.9,393.6l34.2-55.3c5.7-9.2,2.9-21.4-6.4-27.1c-5-3.1-48.1-29.9-64.7-39.9c-23.4-14.1-53.1-7.7-68.9,14.8c-0.6,0.8-1.2,1.7-1.7,2.7c-14.2,23.1-9.1,53.6,11.6,67.9c17.1,11.9,63.7,39.9,69.1,43.1C276.1,405.6,288.3,402.8,293.9,393.6z"/><path d="M386.5,521c-18.4,18.3-40.1,30.5-68.3,38.2l-26.2,7.2l23.1,14.3c9.1,5.6,18,11.1,26.5,16.5c19.7,12.3,38.4,23.9,57.5,35.3c24.9,15,55.5,8.2,71.1-16c0.2-0.3,0.4-0.6,0.5-0.8c14.5-23.5,8.2-53.4-14.7-69.5l-44.7-27.6C402.8,513.2,392.9,514.7,386.5,521z"/><path d="M506.5,531.7c12.7-3.5,23.4-11.7,30.4-22.8c0.2-0.3,0.3-0.5,0.5-0.8c13.7-23.1,7.4-52.8-14.5-69.1c-4.9-3.7-10.1-7.1-15.5-10.1c-23-13.2-51.8-7.6-67.2,13c-3.3,4.4-30.8,49.7-30.8,49.7s50,31.5,59,36.1C480.2,533.8,493.7,535.2,506.5,531.7z"/><path d="M221,397.7L221,397.7l-0.1-0.1c-21.3-13.1-48.6,0.6-61.7,21c-0.2,0.3-0.3,0.5-0.5,0.8c-12.7,20.4-12.2,52.5,7.4,64.5l33.7,21.1c8.9,5.5,22.8,4.5,28.8-5.3l32.9-53.3c5.6-9.1,2.9-21.2-6.1-26.9L221,397.7z"/><path d="M979.5,568.2l-27.5-17c-3.5-2.1-7.5-3.3-11.6-3.3c-7.7,0-14.7,3.9-18.7,10.4L688.5,936.3c-6.3,10.3-3.2,23.9,7.2,30.3l27.5,17c3.5,2.1,7.5,3.3,11.6,3.3c7.7,0,14.7-3.9,18.7-10.4l233.3-377.9c3.1-5,4.1-10.9,2.7-16.6C988,576.2,984.6,571.3,979.5,568.2z"/></g></g><g></g><g></g><g></g><g></g><g></g><g></g><g></g><g></g><g></g><g></g><g></g><g></g><g></g><g></g><g></g></g>
</svg>