<?xml version="1.0" encoding="utf-8"?>
<svg viewBox="0 0 250 250" style="width: 1.1025390625em; height: 1em;vertical-align: middle;fill: currentColor;overflow: hidden;" xmlns="http://www.w3.org/2000/svg">
  <defs>
    <linearGradient gradientUnits="userSpaceOnUse" x1="125" y1="4.5" x2="125" y2="245.5" id="gradient-0">
      <stop offset="0" style="stop-color: rgba(90, 199, 245, 1)"/>
      <stop offset="1" style="stop-color: rgba(13, 158, 220, 1)"/>
    </linearGradient>
  </defs>
  <rect x="51.256" y="48.104" width="155.371" height="163.079" style="stroke: rgb(0, 0, 0); stroke-width: 0px; fill: rgb(255, 255, 255);" transform="matrix(0.981789, 0.189973, 0.48524, 1.112441, -64.627664, -40.419591)" rx="77.686" ry="77.686"/>
  <path d="M 125 4.5 C 58.298 4.5 4.5 58.834 4.5 125 C 4.5 191.707 58.834 245.5 125 245.5 C 191.707 245.5 245.5 191.171 245.5 125 C 245.5 58.834 191.707 4.5 125 4.5 Z M 199.776 183.097 C 196.549 193.86 182.023 209.459 168.578 209.459 L 167.498 208.923 C 147.593 207.843 120.157 189.018 94.875 158.352 L 85.733 147.058 C 60.445 116.395 46.998 86.27 50.224 66.903 C 52.377 52.913 72.817 41.619 84.654 41.619 C 90.57 41.619 92.722 44.308 93.264 46.462 C 99.718 58.298 108.328 78.738 108.328 86.27 L 108.328 87.343 C 106.712 91.113 103.485 93.264 100.796 94.875 C 97.028 97.028 94.875 98.643 94.337 102.407 C 94.337 103.485 95.412 109.401 112.09 129.843 L 119.084 138.453 C 135.757 158.352 141.142 160.503 142.215 160.503 C 146.52 161.046 148.131 159.43 151.363 156.203 C 153.514 153.514 156.203 150.82 159.968 150.282 L 161.046 150.282 C 168.578 151.898 186.866 163.735 197.623 172.877 C 199.238 173.413 201.927 176.108 199.776 183.097 Z M 199.776 183.097" style="paint-order: fill; fill: url(#gradient-0);"/>
</svg>